<svg xmlns="http://www.w3.org/2000/svg" viewBox="0 0 500 500"><g id="freepik--background-simple--inject-1"><path d="M479.11,215.94c-16.24-53.08-58-95.57-107.4-118C324.57,76.6,265,66,220.31,98.93c-29.41,21.65-46.06,56.35-73,80.64-13.39,12.07-28,16-44,23.22-38.81,17.6-71.29,51.54-74,96.31C24.93,374,84.27,425.74,150.49,442.73c87.5,22.44,152.9,22.44,213-1.8,31.21-12.59,63-28.51,85.48-54.58,34-39.42,43.43-95.42,35.69-146A171.56,171.56,0,0,0,479.11,215.94Z" style="fill:#92E3A9"></path><path d="M479.11,215.94c-16.24-53.08-58-95.57-107.4-118C324.57,76.6,265,66,220.31,98.93c-29.41,21.65-46.06,56.35-73,80.64-13.39,12.07-28,16-44,23.22-38.81,17.6-71.29,51.54-74,96.31C24.93,374,84.27,425.74,150.49,442.73c87.5,22.44,152.9,22.44,213-1.8,31.21-12.59,63-28.51,85.48-54.58,34-39.42,43.43-95.42,35.69-146A171.56,171.56,0,0,0,479.11,215.94Z" style="fill:#fff;opacity:0.8"></path></g><g id="freepik--Plant--inject-1"><path d="M445,368.2c.56-1.38,1.14-2.86,1.72-4.39.58.12,5.35,1.09,7.57.59,2-.46,4.45-1.6,5.35-3.59a3.65,3.65,0,0,0-2-5.06c-2.93-1-7.41,2.34-9.05,4.57-.1.13-1,1.67-1.54,2.65.24-.62.47-1.23.7-1.88.47-1.27.9-2.56,1.37-3.94.2-.68.4-1.36.61-2s.36-1.43.55-2.15c.4-1.67.72-3.39,1-5.13,1.12.41,5.11,1.8,7.18,1.66s4.64-.91,5.84-2.74a3.67,3.67,0,0,0-1.23-5.31c-2.75-1.42-7.69,1.2-9.65,3.15-.12.12-1.37,1.68-2,2.55.17-1.05.34-2.09.47-3.16.38-3.06.67-6.18,1-9.29l.3-2.85c.4.15,5.11,1.9,7.42,1.74,2.06-.15,4.65-.9,5.84-2.74a3.66,3.66,0,0,0-1.23-5.31c-2.75-1.41-7.69,1.2-9.64,3.15-.15.15-1.95,2.39-2.37,3,.22-2.09.46-4.17.78-6.21a64.06,64.06,0,0,1,1.78-8.18c.19.07,5.09,1.93,7.47,1.76,2.06-.15,4.64-.9,5.83-2.73a3.66,3.66,0,0,0-1.23-5.31c-2.75-1.42-7.68,1.19-9.64,3.14-.15.16-2.08,2.57-2.4,3,0-.15.08-.32.12-.47a47.93,47.93,0,0,1,3.24-7.74c.71-1.38,1.46-2.65,2.21-3.88.88.44,4.92,2.4,7.07,2.49s4.72-.39,6.1-2.08a3.66,3.66,0,0,0-.64-5.41c-2.58-1.72-7.76.34-9.93,2.07-.11.09-1.2,1.17-2,2,.35-.55.71-1.12,1.05-1.64,1.3-2,2.6-3.66,3.77-5.16.67-.85,1.3-1.6,1.89-2.3,1.09,0,5.47-.15,7.38-1.05s4-2.52,4.46-4.66a3.67,3.67,0,0,0-3.06-4.51c-3.08-.33-6.74,3.89-7.86,6.42-.1.21-1.23,3.8-1.17,3.8h.06c-.58.66-1.2,1.38-1.85,2.17-1.21,1.48-2.56,3.16-3.9,5.09a67.45,67.45,0,0,0-4,6.43,47.53,47.53,0,0,0-3.45,7.77l0,.09c0-.9,0-3.44-.05-3.63-.35-2.74-2.65-7.83-5.7-8.4a3.67,3.67,0,0,0-4.22,3.45c-.18,2.18,1.4,4.36,2.94,5.73,1.74,1.55,6.56,3.06,6.94,3.17a66.18,66.18,0,0,0-2,8.41c-.29,1.66-.54,3.34-.76,5,0-.78,0-1.48,0-1.58-.36-2.74-2.66-7.83-5.7-8.39a3.67,3.67,0,0,0-4.23,3.44c-.17,2.18,1.41,4.36,2.94,5.73s5.65,2.76,6.74,3.11c-.08.65-.17,1.29-.25,1.94-.37,3.11-.73,6.21-1.17,9.24-.15,1.07-.35,2.11-.54,3.16,0-.7,0-1.28,0-1.37-.36-2.74-2.66-7.83-5.7-8.39a3.67,3.67,0,0,0-4.23,3.44c-.17,2.18,1.41,4.36,2.95,5.74s5.24,2.62,6.53,3c-.22,1.06-.45,2.13-.72,3.16-.19.69-.34,1.38-.57,2.06s-.44,1.37-.66,2c-.47,1.28-.94,2.6-1.42,3.83-.33.86-.66,1.68-1,2.5.17-1.06.46-3.15.46-3.32a14.23,14.23,0,0,0-1.91-6.92,3.82,3.82,0,0,0-4.53-3.92c-3,.8-4.89,6-5,8.81,0,.16.1,1.94.19,3.06-.15-.65-.29-1.29-.46-2-.31-1.33-.66-2.64-1-4-.2-.68-.41-1.36-.61-2.05s-.49-1.39-.73-2.09c-.59-1.62-1.27-3.23-2-4.83,1.16-.28,5.26-1.33,6.9-2.59s3.38-3.31,3.36-5.5a3.65,3.65,0,0,0-3.95-3.75c-3.08.34-5.75,5.24-6.31,7.95,0,.16-.22,2.15-.3,3.25-.44-1-.87-1.93-1.35-2.89-1.37-2.77-2.85-5.53-4.31-8.29l-1.33-2.54c.42-.1,5.31-1.23,7.16-2.65,1.63-1.25,3.37-3.31,3.35-5.49a3.65,3.65,0,0,0-3.95-3.75c-3.08.33-5.75,5.23-6.31,7.94,0,.2-.3,3.06-.33,3.79-1-1.86-1.92-3.73-2.78-5.61a65.2,65.2,0,0,1-3-7.8c.19-.05,5.31-1.21,7.2-2.66,1.64-1.25,3.37-3.31,3.36-5.5a3.67,3.67,0,0,0-4-3.75c-3.08.34-5.75,5.24-6.31,7.95,0,.21-.32,3.29-.33,3.85,0-.16-.11-.31-.16-.47a47.35,47.35,0,0,1-1.56-8.23c-.17-1.54-.25-3-.3-4.46,1-.12,5.43-.71,7.27-1.83s3.72-2.92,3.94-5.09a3.67,3.67,0,0,0-3.52-4.17c-3.09,0-6.29,4.58-7.14,7.21,0,.14-.35,1.65-.57,2.75,0-.66,0-1.33,0-1.95,0-2.34.15-4.48.29-6.38.1-1.08.2-2,.31-3,.89-.62,4.47-3.15,5.58-4.95s1.95-4.31,1.15-6.34a3.67,3.67,0,0,0-5.05-2.07c-2.75,1.42-3.47,7-3,9.68,0,.24,1.07,3.85,1.12,3.82l.05,0c-.12.87-.24,1.81-.35,2.84-.18,1.9-.38,4-.43,6.39a61.6,61.6,0,0,0,.18,7.59,48.54,48.54,0,0,0,1.4,8.38l0,.1c-.48-.77-1.92-2.86-2-3-1.81-2.09-6.54-5.07-9.39-3.86a3.67,3.67,0,0,0-1.62,5.21c1,1.91,3.57,2.86,5.62,3.16,2.3.33,7.15-1.07,7.53-1.19a65.33,65.33,0,0,0,2.95,8.14c.66,1.54,1.38,3.08,2.12,4.61-.44-.65-.84-1.23-.9-1.3-1.81-2.09-6.54-5.07-9.38-3.86a3.67,3.67,0,0,0-1.63,5.21c1.05,1.91,3.57,2.86,5.62,3.16s6.23-.82,7.32-1.13c.3.59.58,1.17.87,1.76,1.41,2.79,2.82,5.58,4.12,8.35.46,1,.88,2,1.3,2.93-.39-.57-.73-1-.79-1.12-1.81-2.09-6.53-5.07-9.38-3.86a3.66,3.66,0,0,0-1.62,5.21c1,1.91,3.57,2.86,5.61,3.16s5.83-.71,7.13-1.07c.4,1,.8,2,1.15,3,.21.69.47,1.34.65,2s.39,1.38.58,2.06c.32,1.32.65,2.69.93,4,.2.9.37,1.77.55,2.64-.45-1-1.36-2.88-1.46-3-1.47-2.34-5.68-6-8.68-5.23a3.67,3.67,0,0,0-2.4,4.9c.75,2.05,3.1,3.37,5.07,4,2.18.67,7,.06,7.59,0,.29,1.44.56,2.84.79,4.16.81,4.6,1.31,8.46,1.62,11.16.06.48.1.91.15,1.31h-9.32l1.4,27.41A145.45,145.45,0,0,0,448.45,387l.41-7.95h-8.68l.19-.39C441.56,376.12,443.21,372.56,445,368.2Zm-6.49,9.48c-.25.49-.47.93-.68,1.32h-.21c-.06-.47-.13-1-.21-1.57-.37-2.72-1-6.61-1.88-11.23-.29-1.46-.62-3-1-4.61a43.12,43.12,0,0,0,4.23-2c1.59,1.71,5.64,3.72,6.17,4-.55,1.36-1.1,2.68-1.64,3.91C441.45,371.76,439.74,375.26,438.51,377.68Z" style="fill:#263238"></path><path d="M453.93,293.25c-.75,2.05.2,4.57,1.32,6.3,1.31,2,5.91,4.93,5.92,4.93s1-3.61,1-3.84c.38-2.74-.49-8.26-3.28-9.6A3.65,3.65,0,0,0,453.93,293.25Z" style="fill:#263238"></path><path d="M406.21,303.29c2.22,1,7.66.85,7.66.85s-1.17-3.56-1.27-3.78c-1.19-2.49-5-6.61-8-6.19a3.66,3.66,0,0,0-2.94,4.59C402.14,300.88,404.32,302.46,406.21,303.29Z" style="fill:#263238"></path></g><g id="freepik--Characters--inject-1"><path d="M275.9,329.42s-107-2-120,22c-9.17,16.92-20.16,60.59-25.84,84.86a198.35,198.35,0,0,0,20.43,6.45c57.94,14.85,106.18,19.86,149.62,14.52C291.91,409.67,275.9,329.42,275.9,329.42Z" style="fill:#263238;stroke:#263238;stroke-linecap:round;stroke-linejoin:round"></path><path d="M180.4,208.75s-24.67,18.67-36,37.67,0,95,9,106.66,24.33,19.34,59.33,14,60.67-22.33,65.67-38-4-54.66-4-54.66,17-9.67,15.33-29.67-22.66-25.67-33.33-30-34-11-34-11S196.73,200.08,180.4,208.75Z" style="fill:#b5b5b5"></path><g style="opacity:0.35000000000000003"><path d="M278,227.42h3.05q-1.07-1-2.19-1.83A2.39,2.39,0,0,0,278,227.42Z" style="fill:#fff"></path><path d="M256.4,225v2.41h2.4A2.4,2.4,0,0,0,256.4,225Z" style="fill:#fff"></path><path d="M280.4,249a2.41,2.41,0,1,0,2.4,2.41A2.4,2.4,0,0,0,280.4,249Z" style="fill:#fff"></path><path d="M268.4,265.82a2.41,2.41,0,1,0-2.4-2.4A2.4,2.4,0,0,0,268.4,265.82Z" style="fill:#fff"></path><path d="M268.4,241.82a2.41,2.41,0,1,0-2.4-2.4A2.4,2.4,0,0,0,268.4,241.82Z" style="fill:#fff"></path><path d="M258.8,275.42a2.4,2.4,0,0,0-2.4-2.41v2.41Z" style="fill:#fff"></path><path d="M256.4,249v4.81a2.41,2.41,0,0,0,0-4.81Z" style="fill:#fff"></path><path d="M280.4,229.82a2.4,2.4,0,0,0,2-1.1c-.44-.45-.9-.88-1.36-1.3H278A2.4,2.4,0,0,0,280.4,229.82Z" style="fill:#fff"></path><path d="M256.4,229.82a2.4,2.4,0,0,0,2.4-2.4h-2.4Z" style="fill:#fff"></path><path d="M278,323.42h1.54q.13-1.12.21-2.31A2.41,2.41,0,0,0,278,323.42Z" style="fill:#fff"></path><path d="M279,301.33c-.13-1.15-.27-2.29-.41-3.42a2.35,2.35,0,0,0-.55,1.51A2.4,2.4,0,0,0,279,301.33Z" style="fill:#fff"></path><path d="M268.4,309a2.41,2.41,0,1,0,2.4,2.41A2.4,2.4,0,0,0,268.4,309Z" style="fill:#fff"></path><path d="M268.4,285a2.41,2.41,0,1,0,2.4,2.41A2.4,2.4,0,0,0,268.4,285Z" style="fill:#fff"></path><path d="M258.8,323.42a2.4,2.4,0,0,0-2.4-2.41v2.41Z" style="fill:#fff"></path><path d="M256.4,297v4.81a2.41,2.41,0,0,0,0-4.81Z" style="fill:#fff"></path><path d="M256.4,275.42v2.4a2.4,2.4,0,0,0,2.4-2.4Z" style="fill:#fff"></path><path d="M266,335.42a2.4,2.4,0,1,0,2.4-2.41A2.4,2.4,0,0,0,266,335.42Z" style="fill:#fff"></path><path d="M256.4,345v4.81a2.41,2.41,0,0,0,0-4.81Z" style="fill:#fff"></path><path d="M279.24,325.51c.12-.68.22-1.37.3-2.09H278A2.41,2.41,0,0,0,279.24,325.51Z" style="fill:#fff"></path><path d="M256.4,323.42v2.4a2.4,2.4,0,0,0,2.4-2.4Z" style="fill:#fff"></path><path d="M232.4,225a2.4,2.4,0,0,0-2.4,2.41h4.8A2.4,2.4,0,0,0,232.4,225Z" style="fill:#fff"></path><path d="M256.4,225a2.52,2.52,0,0,0-.48.05,2.41,2.41,0,0,0-1.87,1.87,2.63,2.63,0,0,0-.05.49h2.4Z" style="fill:#fff"></path><path d="M246.8,215.42a2.4,2.4,0,1,0-2.4,2.4A2.4,2.4,0,0,0,246.8,215.42Z" style="fill:#fff"></path><path d="M222.8,215.42a2.4,2.4,0,1,0-2.4,2.4A2.4,2.4,0,0,0,222.8,215.42Z" style="fill:#fff"></path><path d="M208.88,225.06a2.44,2.44,0,0,0-.48-.05v2.41h2.4A2.41,2.41,0,0,0,208.88,225.06Z" style="fill:#fff"></path><path d="M208.88,205.77a2.4,2.4,0,0,0,1.92-2.35,3,3,0,0,0,0-.43c-.76,0-1.55,0-2.36,0v2.83A2.44,2.44,0,0,0,208.88,205.77Z" style="fill:#fff"></path><path d="M234.39,274.07a2.4,2.4,0,0,0-4.39,1.35h4.8A2.42,2.42,0,0,0,234.39,274.07Z" style="fill:#fff"></path><path d="M256.4,273a2.52,2.52,0,0,0-.48.05,2.4,2.4,0,0,0-1.87,1.87,2.63,2.63,0,0,0-.05.49h2.4Z" style="fill:#fff"></path><path d="M232.4,249a2.41,2.41,0,1,0,2.4,2.41A2.4,2.4,0,0,0,232.4,249Z" style="fill:#fff"></path><path d="M255.92,249.06a2.41,2.41,0,0,0-1.87,1.87,2.38,2.38,0,0,0,0,1,2.4,2.4,0,0,0,1.87,1.87,2.52,2.52,0,0,0,.48,0V249A2.52,2.52,0,0,0,255.92,249.06Z" style="fill:#fff"></path><path d="M244.4,265.82a2.41,2.41,0,1,0-2.4-2.4A2.4,2.4,0,0,0,244.4,265.82Z" style="fill:#fff"></path><path d="M220.4,265.82a2.41,2.41,0,1,0-2.4-2.4A2.4,2.4,0,0,0,220.4,265.82Z" style="fill:#fff"></path><path d="M244.4,241.82a2.41,2.41,0,1,0-2.4-2.4A2.4,2.4,0,0,0,244.4,241.82Z" style="fill:#fff"></path><path d="M220.4,241.82a2.41,2.41,0,1,0-2.4-2.4A2.4,2.4,0,0,0,220.4,241.82Z" style="fill:#fff"></path><path d="M210.8,275.42a2.41,2.41,0,0,0-2.4-2.41v2.41Z" style="fill:#fff"></path><path d="M208.88,249.06a2.44,2.44,0,0,0-.48-.05v4.81a2.44,2.44,0,0,0,.48,0,2.4,2.4,0,0,0,0-4.71Z" style="fill:#fff"></path><path d="M232.4,229.82a2.4,2.4,0,0,0,2.4-2.4H230A2.4,2.4,0,0,0,232.4,229.82Z" style="fill:#fff"></path><path d="M256.4,227.42H254a2.61,2.61,0,0,0,.05.48,2.4,2.4,0,0,0,1.87,1.87,2.52,2.52,0,0,0,.48,0Z" style="fill:#fff"></path><path d="M208.4,227.42v2.4a2.44,2.44,0,0,0,.48,0,2.4,2.4,0,0,0,1.92-2.35Z" style="fill:#fff"></path><path d="M232.4,321a2.4,2.4,0,0,0-2.4,2.41h4.8A2.4,2.4,0,0,0,232.4,321Z" style="fill:#fff"></path><path d="M256.4,321a2.52,2.52,0,0,0-.48.05,2.42,2.42,0,0,0-1.87,1.87,2.63,2.63,0,0,0-.05.49h2.4Z" style="fill:#fff"></path><path d="M232.4,297a2.41,2.41,0,1,0,2.4,2.41A2.4,2.4,0,0,0,232.4,297Z" style="fill:#fff"></path><path d="M255.92,297.06a2.42,2.42,0,0,0-1.87,1.87,2.38,2.38,0,0,0,0,1,2.4,2.4,0,0,0,1.87,1.87,2.52,2.52,0,0,0,.48.05V297A2.52,2.52,0,0,0,255.92,297.06Z" style="fill:#fff"></path><path d="M244.4,309a2.41,2.41,0,1,0,2.4,2.41A2.4,2.4,0,0,0,244.4,309Z" style="fill:#fff"></path><path d="M220.4,309a2.41,2.41,0,1,0,2.4,2.41A2.4,2.4,0,0,0,220.4,309Z" style="fill:#fff"></path><path d="M244.4,285a2.41,2.41,0,1,0,2.4,2.41A2.4,2.4,0,0,0,244.4,285Z" style="fill:#fff"></path><path d="M220.4,285a2.41,2.41,0,1,0,2.4,2.41A2.4,2.4,0,0,0,220.4,285Z" style="fill:#fff"></path><path d="M210.8,323.42a2.41,2.41,0,0,0-1.92-2.36,2.44,2.44,0,0,0-.48-.05v2.41Z" style="fill:#fff"></path><path d="M208.88,297.06a2.44,2.44,0,0,0-.48-.05v4.81a2.44,2.44,0,0,0,.48-.05,2.4,2.4,0,0,0,0-4.71Z" style="fill:#fff"></path><path d="M230,275.42a2.4,2.4,0,1,0,4.8,0Z" style="fill:#fff"></path><path d="M254,275.42a2.61,2.61,0,0,0,.05.48,2.4,2.4,0,0,0,1.87,1.87,2.52,2.52,0,0,0,.48.05v-2.4Z" style="fill:#fff"></path><path d="M208.4,275.42v2.4a2.44,2.44,0,0,0,.48-.05,2.4,2.4,0,0,0,1.92-2.35Z" style="fill:#fff"></path><path d="M232.4,345a2.41,2.41,0,1,0,2.4,2.41A2.4,2.4,0,0,0,232.4,345Z" style="fill:#fff"></path><path d="M255.92,345.06a2.42,2.42,0,0,0-1.87,1.87,2.38,2.38,0,0,0,0,1,2.4,2.4,0,0,0,1.87,1.87,2.52,2.52,0,0,0,.48.05V345A2.52,2.52,0,0,0,255.92,345.06Z" style="fill:#fff"></path><path d="M242,359.24c1.33-.54,2.64-1.09,3.91-1.66a2.35,2.35,0,0,0-1.53-.57A2.4,2.4,0,0,0,242,359.24Z" style="fill:#fff"></path><path d="M220.4,357a2.41,2.41,0,1,0,2.4,2.41A2.4,2.4,0,0,0,220.4,357Z" style="fill:#fff"></path><path d="M242,335.42a2.4,2.4,0,1,0,2.4-2.41A2.4,2.4,0,0,0,242,335.42Z" style="fill:#fff"></path><path d="M220.4,333a2.41,2.41,0,1,0,2.4,2.41A2.4,2.4,0,0,0,220.4,333Z" style="fill:#fff"></path><path d="M208.88,345.06a2.44,2.44,0,0,0-.48-.05v4.81a2.44,2.44,0,0,0,.48-.05,2.4,2.4,0,0,0,0-4.71Z" style="fill:#fff"></path><path d="M230,323.42a2.4,2.4,0,1,0,4.8,0Z" style="fill:#fff"></path><path d="M254,323.42a2.61,2.61,0,0,0,.05.48,2.4,2.4,0,0,0,1.87,1.87,2.52,2.52,0,0,0,.48.05v-2.4Z" style="fill:#fff"></path><path d="M208.4,323.42v2.4a2.44,2.44,0,0,0,.48-.05,2.4,2.4,0,0,0,1.92-2.35Z" style="fill:#fff"></path><path d="M184.4,225a2.4,2.4,0,0,0-2.4,2.41h4.8A2.41,2.41,0,0,0,184.4,225Z" style="fill:#fff"></path><path d="M208.4,225a2.44,2.44,0,0,0-.48.05,2.41,2.41,0,0,0-1.87,1.87,2.63,2.63,0,0,0-.05.49h2.4Z" style="fill:#fff"></path><path d="M206.05,203.9a2.4,2.4,0,0,0,1.87,1.87,2.44,2.44,0,0,0,.48,0V203c-.77,0-1.56,0-2.36,0a2.33,2.33,0,0,0,0,.38A2.61,2.61,0,0,0,206.05,203.9Z" style="fill:#fff"></path><path d="M198.8,215.42a2.4,2.4,0,1,0-2.4,2.4A2.41,2.41,0,0,0,198.8,215.42Z" style="fill:#fff"></path><path d="M172.4,217.82a2.4,2.4,0,0,0,1.77-4q-1.66,1.41-3.62,3.13A2.38,2.38,0,0,0,172.4,217.82Z" style="fill:#fff"></path><path d="M160.4,226.53v.89h2.4a2.37,2.37,0,0,0-1.22-2.08Z" style="fill:#fff"></path><path d="M186.39,274.07a2.4,2.4,0,0,0-4.39,1.35h4.8A2.42,2.42,0,0,0,186.39,274.07Z" style="fill:#fff"></path><path d="M208.4,273a2.4,2.4,0,0,0-2.35,1.92,2.63,2.63,0,0,0-.05.49h2.4Z" style="fill:#fff"></path><path d="M184.4,249a2.41,2.41,0,1,0,2.4,2.41A2.4,2.4,0,0,0,184.4,249Z" style="fill:#fff"></path><path d="M207.92,249.06a2.41,2.41,0,0,0-1.87,1.87,2.38,2.38,0,0,0,0,1,2.4,2.4,0,0,0,1.87,1.87,2.44,2.44,0,0,0,.48,0V249A2.44,2.44,0,0,0,207.92,249.06Z" style="fill:#fff"></path><path d="M196.4,265.82a2.41,2.41,0,1,0-2.4-2.4A2.41,2.41,0,0,0,196.4,265.82Z" style="fill:#fff"></path><path d="M172.4,265.82a2.41,2.41,0,1,0-2.4-2.4A2.41,2.41,0,0,0,172.4,265.82Z" style="fill:#fff"></path><path d="M196.4,241.82a2.41,2.41,0,1,0-2.4-2.4A2.41,2.41,0,0,0,196.4,241.82Z" style="fill:#fff"></path><path d="M170,239.42a2.4,2.4,0,1,0,2.4-2.41A2.4,2.4,0,0,0,170,239.42Z" style="fill:#fff"></path><path d="M162.8,275.42a2.42,2.42,0,0,0-.41-1.35,2.51,2.51,0,0,0-1.06-.87,2.38,2.38,0,0,0-.93-.19v2.41Z" style="fill:#fff"></path><path d="M161.33,249.2a2.38,2.38,0,0,0-.93-.19v4.81a2.41,2.41,0,0,0,2.4-2.4A2.4,2.4,0,0,0,161.33,249.2Z" style="fill:#fff"></path><path d="M184.4,229.82a2.41,2.41,0,0,0,2.4-2.4H182A2.4,2.4,0,0,0,184.4,229.82Z" style="fill:#fff"></path><path d="M208.4,227.42H206a2.61,2.61,0,0,0,.05.48,2.4,2.4,0,0,0,1.87,1.87,2.44,2.44,0,0,0,.48,0Z" style="fill:#fff"></path><path d="M160.4,229.82a2.41,2.41,0,0,0,2.4-2.4h-2.4Z" style="fill:#fff"></path><path d="M184.4,321a2.4,2.4,0,0,0-2.4,2.41h4.8A2.41,2.41,0,0,0,184.4,321Z" style="fill:#fff"></path><path d="M208.4,321a2.41,2.41,0,0,0-2.35,1.92,2.63,2.63,0,0,0-.05.49h2.4Z" style="fill:#fff"></path><path d="M184.4,297a2.41,2.41,0,1,0,2.4,2.41A2.4,2.4,0,0,0,184.4,297Z" style="fill:#fff"></path><path d="M207.92,297.06a2.42,2.42,0,0,0-1.87,1.87,2.38,2.38,0,0,0,0,1,2.4,2.4,0,0,0,1.87,1.87,2.44,2.44,0,0,0,.48.05V297A2.44,2.44,0,0,0,207.92,297.06Z" style="fill:#fff"></path><path d="M196.4,309a2.41,2.41,0,1,0,2.4,2.41A2.4,2.4,0,0,0,196.4,309Z" style="fill:#fff"></path><path d="M172.4,309a2.41,2.41,0,1,0,2.4,2.41A2.4,2.4,0,0,0,172.4,309Z" style="fill:#fff"></path><path d="M196.4,285a2.41,2.41,0,1,0,2.4,2.41A2.4,2.4,0,0,0,196.4,285Z" style="fill:#fff"></path><path d="M172.4,285a2.41,2.41,0,1,0,2.4,2.41A2.4,2.4,0,0,0,172.4,285Z" style="fill:#fff"></path><path d="M162.8,323.42a2.4,2.4,0,0,0-1.47-2.22,2.38,2.38,0,0,0-.93-.19v2.41Z" style="fill:#fff"></path><path d="M161.33,297.2a2.38,2.38,0,0,0-.93-.19v4.81a2.41,2.41,0,0,0,2.4-2.4A2.4,2.4,0,0,0,161.33,297.2Z" style="fill:#fff"></path><path d="M184.4,277.82a2.41,2.41,0,0,0,2.4-2.4H182A2.4,2.4,0,0,0,184.4,277.82Z" style="fill:#fff"></path><path d="M206,275.42a2.61,2.61,0,0,0,.05.48,2.4,2.4,0,0,0,1.87,1.87,2.44,2.44,0,0,0,.48.05v-2.4Z" style="fill:#fff"></path><path d="M160.4,275.42v2.4a2.41,2.41,0,0,0,2.4-2.4Z" style="fill:#fff"></path><path d="M184.4,345a2.41,2.41,0,1,0,2.4,2.41A2.4,2.4,0,0,0,184.4,345Z" style="fill:#fff"></path><path d="M207.92,345.06a2.42,2.42,0,0,0-1.87,1.87,2.38,2.38,0,0,0,0,1,2.4,2.4,0,0,0,1.87,1.87,2.44,2.44,0,0,0,.48.05V345A2.44,2.44,0,0,0,207.92,345.06Z" style="fill:#fff"></path><path d="M196.4,357a2.41,2.41,0,1,0,2.4,2.41A2.4,2.4,0,0,0,196.4,357Z" style="fill:#fff"></path><path d="M172.4,357a2.41,2.41,0,1,0,2.4,2.41A2.4,2.4,0,0,0,172.4,357Z" style="fill:#fff"></path><path d="M196.4,333a2.41,2.41,0,1,0,2.4,2.41A2.4,2.4,0,0,0,196.4,333Z" style="fill:#fff"></path><path d="M172.4,333a2.41,2.41,0,1,0,2.4,2.41A2.4,2.4,0,0,0,172.4,333Z" style="fill:#fff"></path><path d="M161.33,345.2a2.38,2.38,0,0,0-.93-.19v4.81a2.41,2.41,0,0,0,2.4-2.4A2.4,2.4,0,0,0,161.33,345.2Z" style="fill:#fff"></path><path d="M182,323.42a2.4,2.4,0,0,0,4.8,0Z" style="fill:#fff"></path><path d="M206,323.42a2.61,2.61,0,0,0,.05.48,2.4,2.4,0,0,0,1.87,1.87,2.44,2.44,0,0,0,.48.05v-2.4Z" style="fill:#fff"></path><path d="M160.4,323.42v2.4a2.41,2.41,0,0,0,2.4-2.4Z" style="fill:#fff"></path><path d="M160.4,226.53l-.87.89h.87Z" style="fill:#fff"></path><path d="M160.4,275.42V273a2.38,2.38,0,0,0-.93.19,2.51,2.51,0,0,0-1.06.87,2.42,2.42,0,0,0-.41,1.35Z" style="fill:#fff"></path><path d="M159.47,249.2a2.4,2.4,0,0,0,0,4.43,2.38,2.38,0,0,0,.93.19V249A2.38,2.38,0,0,0,159.47,249.2Z" style="fill:#fff"></path><path d="M150.8,263.42a2.4,2.4,0,1,0-2.4,2.4A2.41,2.41,0,0,0,150.8,263.42Z" style="fill:#fff"></path><path d="M150.8,239.42a2.4,2.4,0,0,0-.52-1.48q-1.44,1.84-2.76,3.7a2.37,2.37,0,0,0,3.28-2.22Z" style="fill:#fff"></path><path d="M160.4,227.42h-.87l-1.18,1.23a2.43,2.43,0,0,0,1.12,1,2.38,2.38,0,0,0,.93.19Z" style="fill:#fff"></path><path d="M160.4,323.42V321a2.38,2.38,0,0,0-.93.19,2.4,2.4,0,0,0-1.47,2.22Z" style="fill:#fff"></path><path d="M159.47,297.2a2.4,2.4,0,0,0,0,4.43,2.38,2.38,0,0,0,.93.19V297A2.38,2.38,0,0,0,159.47,297.2Z" style="fill:#fff"></path><path d="M148.4,309a2.41,2.41,0,1,0,2.4,2.41A2.4,2.4,0,0,0,148.4,309Z" style="fill:#fff"></path><path d="M148.4,285a2.41,2.41,0,1,0,2.4,2.41A2.4,2.4,0,0,0,148.4,285Z" style="fill:#fff"></path><path d="M158,275.42a2.41,2.41,0,0,0,2.4,2.4v-2.4Z" style="fill:#fff"></path><path d="M159.47,345.2a2.4,2.4,0,0,0,0,4.43,2.38,2.38,0,0,0,.93.19V345A2.38,2.38,0,0,0,159.47,345.2Z" style="fill:#fff"></path><path d="M150.8,335.42a2.39,2.39,0,0,0-4.26-1.51c.31,1.28.61,2.52.93,3.72a2.38,2.38,0,0,0,.93.19A2.41,2.41,0,0,0,150.8,335.42Z" style="fill:#fff"></path><path d="M158,323.42a2.41,2.41,0,0,0,2.4,2.4v-2.4Z" style="fill:#fff"></path></g><path d="M180.4,208.75s-24.67,18.67-36,37.67,0,95,9,106.66,24.33,19.34,59.33,14,60.67-22.33,65.67-38-4-54.66-4-54.66,17-9.67,15.33-29.67-22.66-25.67-33.33-30-34-11-34-11S196.73,200.08,180.4,208.75Z" style="fill:none;stroke:#263238;stroke-linecap:round;stroke-linejoin:round"></path><path d="M179.15,218.67s-1,22.25,5.25,32.75,19.25-4.25,24.5-9.75,17.75,9,28.5,1-4-24-11-31.25-19-8.25-27-8S185.65,206.67,179.15,218.67Z" style="fill:#fff;stroke:#263238;stroke-linecap:round;stroke-linejoin:round"></path><path d="M189.9,227.42s11,21.25,20.75,22.25,11.5-28.25,11.5-28.25S202.9,231.67,189.9,227.42Z" style="fill:#fff;stroke:#263238;stroke-linecap:round;stroke-linejoin:round"></path><path d="M222.15,221.42s-19.25,10.25-32.25,6a93.79,93.79,0,0,0,6.06,9.83,27.4,27.4,0,0,0,13.62-.48,43,43,0,0,0,11.31-5C221.86,226.17,222.15,221.42,222.15,221.42Z" style="fill:#263238;stroke:#263238;stroke-linecap:round;stroke-linejoin:round"></path><path d="M155.07,233.75s-13,3.33-19,21.33c-3.26,9.76-21.73,59.77-19.06,81.77s17.33,20,30.67,15,39.39-41.81,39.39-45.47-3.34-16-8.34-16-17.66,6-17.66,6,1.66-14.34,0-24.34" style="fill:#b5b5b5"></path><g style="opacity:0.35000000000000003"><path d="M161.49,275.42c-.07-.77-.16-1.52-.26-2.25a2.55,2.55,0,0,0-.83-.16v2.41Z" style="fill:#fff"></path><path d="M182,299.42a2.39,2.39,0,0,0,4.14,1.64,35.76,35.76,0,0,0-1.36-4,2.33,2.33,0,0,0-.38,0A2.4,2.4,0,0,0,182,299.42Z" style="fill:#fff"></path><path d="M172.4,309a2.41,2.41,0,1,0,2.4,2.41A2.4,2.4,0,0,0,172.4,309Z" style="fill:#fff"></path><path d="M162.8,323.42a2.4,2.4,0,0,0-1.47-2.22,2.38,2.38,0,0,0-.93-.19v2.41Z" style="fill:#fff"></path><path d="M161.33,301.63a2.41,2.41,0,0,0-.93-4.62v4.81A2.38,2.38,0,0,0,161.33,301.63Z" style="fill:#fff"></path><path d="M160.4,277.82a2.38,2.38,0,0,0,.93-.19,2.4,2.4,0,0,0,.32-.17c0-.69-.09-1.37-.16-2H160.4Z" style="fill:#fff"></path><path d="M160.4,325.82a2.41,2.41,0,0,0,2.4-2.4h-2.4Z" style="fill:#fff"></path><path d="M138.39,274.07a2.4,2.4,0,0,0-4.39,1.35h4.8A2.42,2.42,0,0,0,138.39,274.07Z" style="fill:#fff"></path><path d="M160.4,275.42V273a2.38,2.38,0,0,0-.93.19,2.51,2.51,0,0,0-1.06.87,2.42,2.42,0,0,0-.41,1.35Z" style="fill:#fff"></path><path d="M138.8,251.42a2.38,2.38,0,0,0-.6-1.58,42.85,42.85,0,0,0-1.68,4A2.39,2.39,0,0,0,138.8,251.42Z" style="fill:#fff"></path><path d="M148.4,265.82a2.41,2.41,0,1,0-2.4-2.4A2.41,2.41,0,0,0,148.4,265.82Z" style="fill:#fff"></path><path d="M148.4,241.82a2.4,2.4,0,0,0,.26-4.78,28.64,28.64,0,0,0-2.63,2.13,1.9,1.9,0,0,0,0,.25A2.4,2.4,0,0,0,148.4,241.82Z" style="fill:#fff"></path><path d="M136.4,321a2.4,2.4,0,0,0-2.4,2.41h4.8A2.41,2.41,0,0,0,136.4,321Z" style="fill:#fff"></path><path d="M160.4,323.42V321a2.38,2.38,0,0,0-.93.19,2.4,2.4,0,0,0-1.47,2.22Z" style="fill:#fff"></path><path d="M136.4,297a2.41,2.41,0,1,0,2.4,2.41A2.4,2.4,0,0,0,136.4,297Z" style="fill:#fff"></path><path d="M158,299.42a2.41,2.41,0,0,0,2.4,2.4V297a2.38,2.38,0,0,0-.93.19A2.4,2.4,0,0,0,158,299.42Z" style="fill:#fff"></path><path d="M148.4,309a2.41,2.41,0,1,0,2.4,2.41A2.4,2.4,0,0,0,148.4,309Z" style="fill:#fff"></path><path d="M124.4,309a2.41,2.41,0,1,0,2.4,2.41A2.4,2.4,0,0,0,124.4,309Z" style="fill:#fff"></path><path d="M148.4,285a2.41,2.41,0,1,0,2.4,2.41A2.4,2.4,0,0,0,148.4,285Z" style="fill:#fff"></path><path d="M126.8,287.42a2.38,2.38,0,0,0-.8-1.78c-.41,1.36-.82,2.74-1.22,4.14A2.4,2.4,0,0,0,126.8,287.42Z" style="fill:#fff"></path><path d="M136.4,277.82a2.41,2.41,0,0,0,2.4-2.4H134A2.4,2.4,0,0,0,136.4,277.82Z" style="fill:#fff"></path><path d="M159.47,277.63a2.38,2.38,0,0,0,.93.19v-2.4H158A2.4,2.4,0,0,0,159.47,277.63Z" style="fill:#fff"></path><path d="M136.4,345a2.41,2.41,0,1,0,2.4,2.41A2.4,2.4,0,0,0,136.4,345Z" style="fill:#fff"></path><path d="M146,335.42a2.4,2.4,0,1,0,2.4-2.41A2.4,2.4,0,0,0,146,335.42Z" style="fill:#fff"></path><path d="M124.4,333a2.41,2.41,0,1,0,2.4,2.41A2.4,2.4,0,0,0,124.4,333Z" style="fill:#fff"></path><path d="M134,323.42a2.4,2.4,0,0,0,4.8,0Z" style="fill:#fff"></path><path d="M159.47,325.63a2.38,2.38,0,0,0,.93.19v-2.4H158A2.4,2.4,0,0,0,159.47,325.63Z" style="fill:#fff"></path></g><path d="M155.07,233.75s-13,3.33-19,21.33c-3.26,9.76-21.73,59.77-19.06,81.77s17.33,20,30.67,15,39.39-41.81,39.39-45.47-3.34-16-8.34-16-17.66,6-17.66,6,1.66-14.34,0-24.34" style="fill:none;stroke:#263238;stroke-linecap:round;stroke-linejoin:round"></path><path d="M161.07,296.42s-14.67,7-17.34,9.66" style="fill:#fff;stroke:#263238;stroke-linecap:round;stroke-linejoin:round"></path><path d="M202.19,281s6.49.86,9.52,3.89,3.9,14.73,4.33,16.46-3.46,4.76-6.49,6.49-11.26,4.33-13.43,1.74,3-8.66,3-8.66-11.11,9.72-15.52,9.41-8.87-7.51-6.63-11.71S198.72,281,202.19,281Z" style="fill:#fff;stroke:#263238;stroke-linecap:round;stroke-linejoin:round"></path><path d="M188.84,282.86a12.06,12.06,0,0,1,11-5.87c2.57.12,13.58,14.31,12.48,18.71s-5.87,7.71-9.54,4.4S191,286.89,191,286.89" style="fill:#fff;stroke:#263238;stroke-linecap:round;stroke-linejoin:round"></path><path d="M183.64,310.29c0-3.55-4.83-10-6.63-11.71s-4.64-.16-6.12,3.05,3.44,9.18,6.56,11.31S183.68,313,183.64,310.29Z" style="fill:#fff;stroke:#263238;stroke-linecap:round;stroke-linejoin:round"></path><path d="M189.31,305c.77-4.38-3.61-13.39-5.41-16s-5.67-1.29-8.24,2.31,2.06,12.11,5.41,15.45S188.71,308.37,189.31,305Z" style="fill:#fff;stroke:#263238;stroke-linecap:round;stroke-linejoin:round"></path><path d="M197.29,298.53c.77-4.37-3.61-13.39-5.41-16s-5.66-1.29-8.24,2.32,2.06,12.1,5.41,15.45S196.69,301.94,197.29,298.53Z" style="fill:#fff;stroke:#263238;stroke-linecap:round;stroke-linejoin:round"></path><path d="M229.88,187.68s-.25-8.14,3.49-9.68,8.81,1.53,6.41,9.46-6.51,10.87-8.08,9.26S229.88,187.68,229.88,187.68Z" style="fill:#fff;stroke:#263238;stroke-linecap:round;stroke-linejoin:round"></path><path d="M166.65,204.67s-5.5-6-9.25-4.5-5.25,7.25,2,11.25,12.25,3.25,12.25,1S166.65,204.67,166.65,204.67Z" style="fill:#fff;stroke:#263238;stroke-linecap:round;stroke-linejoin:round"></path><path d="M162.26,164s-3.14,13.77-2,22.42,4.72,16.53,11.41,27.54,21.24,22,37.37,17.31c20.43-6,24-18.88,24-33.44s-2-28.32-5.9-38.16-17.71-17.7-40.92-12.59S162.26,164,162.26,164Z" style="fill:#fff;stroke:#263238;stroke-linecap:round;stroke-linejoin:round"></path><path d="M189.46,191.14c.45,1.91-.12,3.67-1.28,4s-2.48-1-2.93-2.94.12-3.67,1.28-4S189,189.24,189.46,191.14Z" style="fill:#263238"></path><path d="M214.39,184.49c.45,1.9-.12,3.67-1.29,3.95s-2.47-1-2.92-2.94.11-3.67,1.28-3.95S213.93,182.59,214.39,184.49Z" style="fill:#263238"></path><path d="M197.43,200.14s1.63,2.44,6.53,2,3.87-6.12,3.87-6.12" style="fill:none;stroke:#263238;stroke-linecap:round;stroke-linejoin:round"></path><path d="M193.35,204a12.67,12.67,0,0,0-3,8" style="fill:none;stroke:#263238;stroke-linecap:round;stroke-linejoin:round"></path><path d="M219.86,205a8.64,8.64,0,0,0-6.32-7.34" style="fill:none;stroke:#263238;stroke-linecap:round;stroke-linejoin:round"></path><path d="M191.52,206.66a17.82,17.82,0,0,0,15.09,2.24c8.56-2.65,11-9,11-9" style="fill:none;stroke:#263238;stroke-linecap:round;stroke-linejoin:round"></path><path d="M174.8,182.26a1.38,1.38,0,0,1-.65-.15,1.48,1.48,0,0,1-.7-2c.15-.33,4-8.18,16.82-4.92a1.5,1.5,0,0,1-.74,2.91c-10.3-2.63-13.25,3.06-13.38,3.3A1.5,1.5,0,0,1,174.8,182.26Z" style="fill:#b2b2b2;stroke:#969696;stroke-linecap:round;stroke-linejoin:round"></path><path d="M204.16,175.54a1.46,1.46,0,0,1-.93-.32,1.51,1.51,0,0,1-.25-2.11c.07-.09,7.12-8.77,17.59-3.54a1.5,1.5,0,0,1-1.34,2.69A11.14,11.14,0,0,0,205.34,175,1.5,1.5,0,0,1,204.16,175.54Z" style="fill:#b2b2b2;stroke:#969696;stroke-linecap:round;stroke-linejoin:round"></path><circle cx="185.28" cy="189.79" r="12.37" style="fill:none;stroke:#263238;stroke-linecap:round;stroke-linejoin:round"></circle><circle cx="213.78" cy="182.29" r="12.37" style="fill:none;stroke:#263238;stroke-linecap:round;stroke-linejoin:round"></circle><line x1="173.4" y1="193.92" x2="164.65" y2="199.92" style="fill:none;stroke:#263238;stroke-linecap:round;stroke-linejoin:round"></line><line x1="197.4" y1="185.92" x2="201.9" y2="184.67" style="fill:none;stroke:#263238;stroke-linecap:round;stroke-linejoin:round"></line><line x1="226.15" y1="180.42" x2="231.9" y2="180.42" style="fill:none;stroke:#263238;stroke-linecap:round;stroke-linejoin:round"></line><path d="M165,189.93s4.33,5.51,2.75,9.45-7.47,6.29-13.77.39-13.62-13.23-16-29.36c-4.66-31.8,26.79-60,57.07-57.82,9.77.7,14.95,4.92,23.43,8.1,0,0,18.89,7.09,24.79,19.68s1.18,29.11-3.15,35.4-10.23,2.76-11,.79-2.75-13.77-9.44-18.1-11,2.76-19.67,5.51-9.05-.39-9.05-.39-.78,3.14-3.54,3.14S180.36,162.4,176,164c-4.63,1.68-3.93,3.93-5.5,4.72l-1.58.79S162.66,178.53,165,189.93Z" style="fill:#b2b2b2"></path><path d="M164.83,188.79a27.7,27.7,0,0,1,1.28-13.39l-.09,0c-5.14,2.28-7.7.85-11.7-3.71s-6,1.43-12,.28a8.48,8.48,0,0,1-4.41-2.47c0,.29.06.58.1.87a47.24,47.24,0,0,0,5.56,16.92c2.93,2.29,6.31,6,9.31,7.51,4.57,2.29,6.28-.85,9.14-4.56A3.65,3.65,0,0,1,164.83,188.79Z" style="fill:#d9d9d9"></path><path d="M243.31,140.37a25.24,25.24,0,0,0-4-6c-.79,3.84-2.78,5.08-4.78,9.07-2.56,5.14,2,11.42-2.56,14.27-3.32,2.07-7.82,2.49-10,2.56,3.92,4.1,5.74,10.84,6.68,14.31a5,5,0,0,0,2.79-1.45c2.29-2,3.71-2,9.14-3.71a7.68,7.68,0,0,0,3.76-3.08C246.47,158.7,247.2,148.68,243.31,140.37Z" style="fill:#d9d9d9"></path><path d="M191,163.58a21.19,21.19,0,0,0-3.58-16.41c-5.75-8.25-17-7.6-23.5-1.25-9,8.79-1.5,19.75,3.75,21.25s10.68-3.66,9-7.75c-1.47-3.6-3.75-4.5-5.75-2.5" style="fill:#b2b2b2;stroke:#969696;stroke-linecap:round;stroke-linejoin:round"></path><path d="M193.4,164.92s7.5-1.25,11.25-9.75c5.46-12.38-1.25-23.5-9.75-26.5" style="fill:none;stroke:#969696;stroke-linecap:round;stroke-linejoin:round"></path><path d="M215.27,157s12.51-3.87,7.88-20.09" style="fill:none;stroke:#969696;stroke-linecap:round;stroke-linejoin:round"></path><path d="M145.9,155.67s2.1,19.62,23,13.81" style="fill:none;stroke:#969696;stroke-linecap:round;stroke-linejoin:round"></path><path d="M224.15,163.42s7.25,8.75,19-3.5" style="fill:none;stroke:#969696;stroke-linecap:round;stroke-linejoin:round"></path><path d="M165,189.93s4.33,5.51,2.75,9.45-7.47,6.29-13.77.39-13.62-13.23-16-29.36c-4.66-31.8,26.79-60,57.07-57.82,9.77.7,14.95,4.92,23.43,8.1,0,0,18.89,7.09,24.79,19.68s1.18,29.11-3.15,35.4-10.23,2.76-11,.79-2.75-13.77-9.44-18.1-11,2.76-19.67,5.51-9.05-.39-9.05-.39-.78,3.14-3.54,3.14S180.36,162.4,176,164c-4.63,1.68-3.93,3.93-5.5,4.72l-1.58.79S162.66,178.53,165,189.93Z" style="fill:none;stroke:#5c5c5c;stroke-miterlimit:10"></path><path d="M357,246.42s-6.17-4.54-11.69,2.28-3.57,6.81-3.57,6.81l10.39,4.87S358.57,252.59,357,246.42Z" style="fill:#fff;stroke:#263238;stroke-linecap:round;stroke-linejoin:round"></path><path d="M372.41,437.24c1.12-16.81-3-23.82-3-23.82s-7.5,3-13.5,6-16,7.5-51,0-50.5-24.5-50.5-24.5-52.93,19-78,53.93l1.31.28L234,457.88c48.55,4.38,90.14-1.1,129.46-16.95Q368,439.13,372.41,437.24Z" style="fill:#263238;stroke:#263238;stroke-linecap:round;stroke-linejoin:round"></path><path d="M298.19,251.29s-30.2,5.52-42.86,19.16-17.86,30.19-18.83,32.79S215.4,326,215.4,326l38,74.95s26,31.5,78.88,28.94c30.54-1.48,37.66-13.31,39-14.94s3.57-26,3.57-26,19.15,4.22,28.89-2.6.33-36-3.24-52.92-14.94-51.29-26.3-62.66-30.85-18.83-39.94-21.1S298.19,251.29,298.19,251.29Z" style="fill:#92E3A9;stroke:#263238;stroke-linecap:round;stroke-linejoin:round"></path><path d="M254.19,302c.46,8.29,1.65,21.25,4.71,32.9" style="fill:none;stroke:#263238;stroke-linecap:round;stroke-linejoin:round"></path><path d="M253.9,293.42s0,1.51.09,4.08" style="fill:none;stroke:#263238;stroke-linecap:round;stroke-linejoin:round"></path><path d="M371,260.45s3.3-1.78,5.58,2.28-1,9.38-3.55,11.91-4.31,0-5.07-1.77S371,260.45,371,260.45Z" style="fill:#fff;stroke:#263238;stroke-linecap:round;stroke-linejoin:round"></path><path d="M364.09,253.24s4.22-2.27,7.15,2.92-1.3,12-4.55,15.26-5.52,0-6.49-2.27S364.09,253.24,364.09,253.24Z" style="fill:#fff;stroke:#263238;stroke-linecap:round;stroke-linejoin:round"></path><path d="M357.27,249.35s4.23-2.28,7.15,2.92-1.3,12-4.55,15.26-5.52,0-6.49-2.28S357.27,249.35,357.27,249.35Z" style="fill:#fff;stroke:#263238;stroke-linecap:round;stroke-linejoin:round"></path><path d="M349.16,249s-4.55,13-2.92,15.91,5.84,3.25,8.44-2.6S358.57,250,357,246.42s-6.17-1.94-8.12,0" style="fill:#fff;stroke:#263238;stroke-linecap:round;stroke-linejoin:round"></path><path d="M350.07,323.75c3,7.33,12,44.67,13.66,53.67" style="fill:none;stroke:#263238;stroke-linecap:round;stroke-linejoin:round"></path><path d="M348.4,309.42a74.47,74.47,0,0,0,1.13,10.47" style="fill:none;stroke:#263238;stroke-linecap:round;stroke-linejoin:round"></path><path d="M312.4,305.08l-5.31-3.75a.94.94,0,0,0-.78-.13l-77.58,21.88-36.41-27.63a2.13,2.13,0,0,0-2-.32l-4.58,1.62,55.34,136.33h4l76.33-31Z" style="fill:#fff;stroke:#263238;stroke-linecap:round;stroke-linejoin:round"></path><path d="M228.73,326.08s14.67,110.34,15,109.34,70.33-26.14,80.72-29.88a1.74,1.74,0,0,0,1.15-1.82l-9.66-100.21a1.76,1.76,0,0,0-2.23-1.52Z" style="fill:#92E3A9;stroke:#263238;stroke-linecap:round;stroke-linejoin:round"></path><path d="M235.23,331.79s12.7,95.54,13,94.67,60.89-22.63,69.89-25.86a1.54,1.54,0,0,0,1-1.58l-8.37-86.77a1.53,1.53,0,0,0-1.93-1.32Z" style="fill:#fff;stroke:#263238;stroke-linecap:round;stroke-linejoin:round"></path><path d="M259.12,359.46l-.21,2.65-1.34.4,1-13.15,2.11-.63,4,11.65-1.45.44-.8-2.35Zm.05-1.24,2.9-.87-2.31-6.72Z" style="fill:#263238"></path><path d="M265.8,360l-1.46-12.4,1.45-.44,1.31,11.15,3.72-1.12.15,1.26Z" style="fill:#263238"></path><path d="M273.53,344.88c2-.61,2.94.07,3.15,1.9l.07.58a2.65,2.65,0,0,1-1.23,2.92c1.3,0,1.9.77,2.06,2.14l.12,1a3.26,3.26,0,0,1-2.63,3.8l-3,.9-1.46-12.4Zm.27,5.37c1.15-.35,1.71-.88,1.55-2.17l-.08-.73c-.13-1.1-.59-1.51-1.63-1.2l-1.43.43.47,4Zm1.12,5.75a1.73,1.73,0,0,0,1.34-2.14l-.12-1.1c-.17-1.38-.8-1.67-2.05-1.3l-1.26.38.54,4.63Z" style="fill:#263238"></path><path d="M280.4,352.63c.13,1.12.68,1.65,1.74,1.34a1.85,1.85,0,0,0,1.29-2.25l-1.11-9.48,1.35-.4,1.11,9.41a3.42,3.42,0,0,1-2.55,4c-2,.6-3.05-.39-3.27-2.27l-1.11-9.41,1.43-.43Z" style="fill:#263238"></path><path d="M291.37,352.35l-1.4.42-3.32-9.22,1.17,9.89-1.27.38-1.46-12.41,2-.61,3.31,9.27.89-10.53,2-.61,1.46,12.41-1.37.41-1.18-10Z" style="fill:#263238"></path><path d="M225.4,325.42l16,109-47.57-51.9a.44.44,0,0,1-.11-.24L184.17,295a.42.42,0,0,1,.67-.37Z" style="fill:#92E3A9;stroke:#263238;stroke-linecap:round;stroke-linejoin:round"></path><path d="M223.94,329.93l14.15,96.4L196,380.43a.41.41,0,0,1-.1-.21l-8.44-77.15a.37.37,0,0,1,.59-.33Z" style="fill:#fff;stroke:#263238;stroke-linecap:round;stroke-linejoin:round"></path><path d="M222.67,331.37s.11,5.68,5.79,5.56,5.2-6.09,5.2-6.09" style="fill:none;stroke:#263238;stroke-linecap:round;stroke-linejoin:round;stroke-width:2px"></path><path d="M224.23,342.62s.11,5.68,5.79,5.56,5.2-6.1,5.2-6.1" style="fill:none;stroke:#263238;stroke-linecap:round;stroke-linejoin:round;stroke-width:2px"></path><path d="M225.79,353.87s.11,5.67,5.79,5.55,5.2-6.09,5.2-6.09" style="fill:none;stroke:#263238;stroke-linecap:round;stroke-linejoin:round;stroke-width:2px"></path><path d="M227.35,365.11s.11,5.68,5.79,5.56,5.2-6.1,5.2-6.1" style="fill:none;stroke:#263238;stroke-linecap:round;stroke-linejoin:round;stroke-width:2px"></path><path d="M228.91,376.36s.12,5.67,5.79,5.55,5.2-6.09,5.2-6.09" style="fill:none;stroke:#263238;stroke-linecap:round;stroke-linejoin:round;stroke-width:2px"></path><path d="M230.47,387.6s.12,5.68,5.79,5.56,5.2-6.1,5.2-6.1" style="fill:none;stroke:#263238;stroke-linecap:round;stroke-linejoin:round;stroke-width:2px"></path><path d="M232,398.85s.12,5.67,5.79,5.56,5.2-6.1,5.2-6.1" style="fill:none;stroke:#263238;stroke-linecap:round;stroke-linejoin:round;stroke-width:2px"></path><path d="M233.59,410.09s.12,5.68,5.79,5.56,5.2-6.1,5.2-6.1" style="fill:none;stroke:#263238;stroke-linecap:round;stroke-linejoin:round;stroke-width:2px"></path><path d="M235.15,421.34s.12,5.67,5.79,5.56,5.2-6.1,5.2-6.1" style="fill:none;stroke:#263238;stroke-linecap:round;stroke-linejoin:round;stroke-width:2px"></path><path d="M399.73,368.08s-17.33-4.33-27.66-7.33-17,3.67-20,10-1.67,15.67,3,20.33,21.66,12.34,33.33,15.34,24-1.67,26.67-13.34-10-24.33-10-24.33" style="fill:#92E3A9;stroke:#263238;stroke-linecap:round;stroke-linejoin:round"></path><path d="M344.4,378.08s3.33,4.67,7.33,4.67,9.34-7.33,9.34-13-6.67-7.33-9-8.67-21.34-19-25.34-23-7.33-6-11-5-16,7.34-20,12-2.66,6.34-1,6,5.34-2.66,6.34-3.33,8.33-5,8.33-5-9.33,8-11.67,11-1.33,6,1.67,5,6.67-4.67,8.33-5.33,7-3,7-3-9,8-10.33,11,.33,4.66,2,4.66,6-5.66,7-6.66a74.38,74.38,0,0,1,6.33-4.34s-6,8.67-8,10,1,4.34,4,3,9.67-7.66,9.67-7.66,3,8,6.67,11.33,10.66,4.67,10.66,4.67Z" style="fill:#fff;stroke:#263238;stroke-linecap:round;stroke-linejoin:round"></path><path d="M314.73,350.42l7.4-6.33a2.24,2.24,0,0,1,2.87.26" style="fill:none;stroke:#263238;stroke-miterlimit:10"></path><path d="M319.73,355.08s2.92-4.2,5.27-4.2" style="fill:none;stroke:#263238;stroke-miterlimit:10"></path><path d="M309.4,342.75l8.29-6a3,3,0,0,1,3.14.52" style="fill:none;stroke:#263238;stroke-linecap:round;stroke-linejoin:round"></path><path d="M352.07,361.08a6,6,0,0,1-.6-.41c.61,3.23.9,10.8-7.43,17.05l.36.36s3.33,4.67,7.33,4.67,9.34-7.33,9.34-13S354.4,362.42,352.07,361.08Z" style="fill:#fff;stroke:#263238;stroke-linecap:round;stroke-linejoin:round"></path><path d="M281.63,261s-6.17,19.48-5.85,27.92,4.87,9.1,8.45,7.47S301.11,286,301.11,286s15.58,17.86,20.13,16.56,20.78-19.16,21.42-33.76-8.11-26.63-11-28.58-8.45-5.84-16.89-4.22S291.37,246.75,281.63,261Z" style="fill:#fff;stroke:#263238;stroke-linecap:round;stroke-linejoin:round"></path><path d="M287.8,266.23s10.39,27.59,13,27.27S309.55,284.41,316,275s10.07-20.77,10.39-26.94-4.54-14.94-4.54-14.94-11.69,17.21-22.41,24S287.8,266.23,287.8,266.23Z" style="fill:#fff;stroke:#263238;stroke-linecap:round;stroke-linejoin:round"></path><path d="M321.89,233.11s-11.69,17.21-22.41,24-11.68,9.09-11.68,9.09,1.14,3,2.75,7.06l1.14-.38c8.12-2.93,17.53-7.47,23.7-13.64s8.12-15.26,8.12-16.88v-2.93s.4-.16,1-.49A49.94,49.94,0,0,0,321.89,233.11Z" style="fill:#263238;stroke:#263238;stroke-linecap:round;stroke-linejoin:round"></path><path d="M259.55,202.92s-1.3,21.1.33,30.52,11,30.84,14.93,32.79,8.77,3.57,16.88.65,17.53-7.47,23.7-13.64,8.12-15.26,8.12-16.88v-2.92s9.41-3.9,12-12.67.33-13.63-1-15.58-33.12-9.41-41.56-9.74S261.5,191.23,259.55,202.92Z" style="fill:#fff;stroke:#263238;stroke-linecap:round;stroke-linejoin:round"></path><path d="M311.46,200s4.26,17.82,8.15,14.9,7.8-8.77,10.72-10.39,1.62-7.47-3.57-7.79S312.07,193.57,311.46,200Z" style="fill:#fff;stroke:#bfbfbf;stroke-linecap:round;stroke-linejoin:round"></path><path d="M276.43,216.23s-1.94,15.58-1.62,18.51,5.52,5.51,7.79,4.54,3.57-6.49,3.57-6.49,7.8,2.92,9.42,8.44" style="fill:none;stroke:#263238;stroke-linecap:round;stroke-linejoin:round"></path><path d="M274.81,234.74s-5.84,1.94-6.17,6.16" style="fill:none;stroke:#263238;stroke-linecap:round;stroke-linejoin:round"></path><path d="M271.24,244.15s13,5.2,20.78-1.3" style="fill:none;stroke:#263238;stroke-linecap:round;stroke-linejoin:round"></path><path d="M293.32,219.64c0,1.52-.8,2.76-1.79,2.76s-1.79-1.24-1.79-2.76.8-2.76,1.79-2.76S293.32,218.11,293.32,219.64Z" style="fill:#263238"></path><path d="M287.15,221.1a16,16,0,0,0,9.41.65" style="fill:none;stroke:#263238;stroke-linecap:round;stroke-linejoin:round"></path><path d="M270.75,218.83c0,1.52-.8,2.76-1.78,2.76s-1.79-1.24-1.79-2.76.8-2.76,1.79-2.76S270.75,217.3,270.75,218.83Z" style="fill:#263238"></path><path d="M264.58,220.29a16,16,0,0,0,9.42.65" style="fill:none;stroke:#263238;stroke-linecap:round;stroke-linejoin:round"></path><path d="M286.5,223.37a14.35,14.35,0,0,0,11.36,5.85" style="fill:none;stroke:#263238;stroke-linecap:round;stroke-linejoin:round"></path><path d="M273.84,223.05a9.33,9.33,0,0,1-9.09,5.84" style="fill:none;stroke:#263238;stroke-linecap:round;stroke-linejoin:round"></path><path d="M257.28,198.7s-6.82-6.17-6.82-11.69S267,166.23,282,161s30.52.65,39,6.81,18.83,17.86,21.11,25-3.25,12.67-5.2,13.31-26.62-5.84-33.76-6.81S269.94,195.78,257.28,198.7Z" style="fill:#999;stroke:#263238;stroke-linecap:round;stroke-linejoin:round"></path><path d="M311.46,200s-25.29-6-41.26-5-25.63,9-12.65,13.31S311.46,200,311.46,200Z" style="fill:#999;stroke:#263238;stroke-linecap:round;stroke-linejoin:round"></path><path d="M268,190.58a114,114,0,0,1,31.17,6.82" style="fill:none;stroke:#263238;stroke-linecap:round;stroke-linejoin:round"></path><path d="M283.9,207.79s-.65-4.87,6.17-5.52,13.31,6.17,13.63,8.44-1.94-2-8.11-3.9S286.82,208.44,283.9,207.79Z" style="fill:#fff;stroke:#bfbfbf;stroke-linecap:round;stroke-linejoin:round"></path><path d="M273.82,207.46a5,5,0,0,0-4.74-5.52c-5.25-.65-10.25,6.17-10.5,8.45s1.5-1.95,6.25-3.9S271.57,208.11,273.82,207.46Z" style="fill:#fff;stroke:#bfbfbf;stroke-linecap:round;stroke-linejoin:round"></path><path d="M183,338.31a6.67,6.67,0,0,0,1.19,5.68c2.1,2.39,6.69,3.27,7.78,2.69,2.19-1.16-3.89-6.58-3.89-6.58Z" style="fill:#fff;stroke:#263238;stroke-linecap:round;stroke-linejoin:round"></path><path d="M181.47,331.43s0,4.49,1.5,6.88,7.17,4.18,9.56,3.59.3-4.79-2.39-6.58S181.47,331.43,181.47,331.43Z" style="fill:#fff;stroke:#263238;stroke-linecap:round;stroke-linejoin:round"></path><path d="M183,324.56a26.59,26.59,0,0,0-1.5,6.87c0,2.69,6.28,5.68,9.27,5.09s1.79-3.29.9-4.79-5.08-4.48-5.08-4.48Z" style="fill:#fff;stroke:#263238;stroke-linecap:round;stroke-linejoin:round"></path><path d="M186.68,318s-5.38.3-6,4.18,4.19,8.67,9,8.08S186.68,318,186.68,318Z" style="fill:#fff;stroke:#263238;stroke-linecap:round;stroke-linejoin:round"></path><path d="M163.34,180.86s-8.11,5.14-18.11-2.94" style="fill:none;stroke:#969696;stroke-linecap:round;stroke-linejoin:round"></path></g></svg>
