<svg xmlns="http://www.w3.org/2000/svg" viewBox="0 0 500 500"><g id="freepik--background-simple--inject-2"><path d="M130.19,135.31c-16.9,7.18-30.09,21.3-40.87,36.17-17.16,23.71-27.36,53-25.47,82.21s16.7,58,41.16,74c22.76,15,57.76,4.37,85,3.74,16.8-.39,35.85,1.45,48.7,12.28,38.44,32.4,84,50.07,118.11,42.55,79.56-17.54,79.75-132.64,78.86-161.71-.93-30.13-12-60.26-31.36-83.35s-50.31-37.79-80-32.48c-37.11,6.63-64.12,41.37-101,49.19-6.9,1.46-14.53,1.81-20.57-1.82C194.34,151.07,170.91,118,130.19,135.31Z" style="fill:#407BFF"></path><g style="opacity:0.9"><path d="M130.19,135.31c-16.9,7.18-30.09,21.3-40.87,36.17-17.16,23.71-27.36,53-25.47,82.21s16.7,58,41.16,74c22.76,15,57.76,4.37,85,3.74,16.8-.39,35.85,1.45,48.7,12.28,38.44,32.4,84,50.07,118.11,42.55,79.56-17.54,79.75-132.64,78.86-161.71-.93-30.13-12-60.26-31.36-83.35s-50.31-37.79-80-32.48c-37.11,6.63-64.12,41.37-101,49.19-6.9,1.46-14.53,1.81-20.57-1.82C194.34,151.07,170.91,118,130.19,135.31Z" style="fill:#fff"></path></g></g><g id="freepik--Shadow--inject-2"><ellipse id="freepik--path--inject-2" cx="250" cy="415.79" rx="193.89" ry="11.32" style="fill:#f5f5f5"></ellipse></g><g id="freepik--Items--inject-2"><path d="M210.3,118.87c2.57-2.46,4.41-5.93,4.07-9.47a43.52,43.52,0,0,0,16-7.42l.25.21a45,45,0,0,1-.3,9.78,15.19,15.19,0,0,1-4.33,8.6c-2.94,2.69-7,3.62-11,4.31-4.56.79-9.4,1.36-13.7-.33C204.49,123,207.73,121.34,210.3,118.87Z" style="fill:#407BFF"></path><path d="M210.3,118.87c2.57-2.46,4.41-5.93,4.07-9.47a43.52,43.52,0,0,0,16-7.42l.25.21a45,45,0,0,1-.3,9.78,15.19,15.19,0,0,1-4.33,8.6c-2.94,2.69-7,3.62-11,4.31-4.56.79-9.4,1.36-13.7-.33C204.49,123,207.73,121.34,210.3,118.87Z" style="fill:#fff;opacity:0.7000000000000001"></path><path d="M204.31,161.86a14.82,14.82,0,0,1,.95-10.31c1.35-2.51,3.6-4.39,5.45-6.56A24.45,24.45,0,0,0,216,134.32l0,1.53a37.44,37.44,0,0,0,2.6,26,109,109,0,0,0-10.3,9.75A44.17,44.17,0,0,1,204.31,161.86Z" style="fill:#407BFF"></path><path d="M204.31,161.86a14.82,14.82,0,0,1,.95-10.31c1.35-2.51,3.6-4.39,5.45-6.56A24.45,24.45,0,0,0,216,134.32l0,1.53a37.44,37.44,0,0,0,2.6,26,109,109,0,0,0-10.3,9.75A44.17,44.17,0,0,1,204.31,161.86Z" style="fill:#fff;opacity:0.7000000000000001"></path><path d="M250.37,124.83s2.07-1.57,2.67-2.16a5.72,5.72,0,0,0,.94-1.46c.26-.44.59-.6.21-.85a2.81,2.81,0,0,0-3.09.36c-.85.61-2.43,1.91-2.43,1.91Z" style="fill:#407BFF"></path><path d="M240.17,128.47c-.24.19-.14.71.05.95l1.57,2c.19.24.67.46.91.28l7.68-6a.54.54,0,0,0,.09-.77l-1.86-2.36a.53.53,0,0,0-.76-.09Z" style="fill:#263238"></path><path d="M240.17,128.47c-.24.19-.14.71.05.95l1.57,2c.19.24.67.46.91.28l7.68-6a.54.54,0,0,0,.09-.77l-1.86-2.36a.53.53,0,0,0-.76-.09Z" style="fill:#fff;opacity:0.6000000000000001"></path><path d="M241.89,127.93l-.23-.29,6.48-5.1,2.14,2.72C247.46,126.09,244.67,127,241.89,127.93Z" style="fill:#fff;opacity:0.30000000000000004"></path></g><g id="freepik--Bag--inject-2"><path d="M241.06,175.11l-2.91,1.16-16.31-38.46c-2.59-6.12-7.16-10.08-14.84-7-7.18,2.9-9.05,9.46-6.48,15.58l16.13,38.45-2.9,1.16-16.11-38.45c-3-7.11-2.69-14,8.6-18.54s15.47.51,18.49,7.62Z" style="fill:#407BFF"></path><path d="M262.85,188.47l-57.27,22.79L190,173.76a7.06,7.06,0,0,1,3.81-9.3l41.64-16.73a9.48,9.48,0,0,1,12.17,5.13Z" style="fill:#407BFF"></path><path d="M256.5,191l-44.63,17.76a7,7,0,0,1-9-3.89L190,173.76a7.06,7.06,0,0,1,3.81-9.3l41.64-16.73a9.48,9.48,0,0,1,12.17,5.13l12.49,29.21A6.68,6.68,0,0,1,256.5,191Z" style="fill:#263238"></path><g style="opacity:0.30000000000000004"><path d="M221.84,137.81c-2.59-6.12-7.16-10.08-14.84-7-7.18,2.9-9.05,9.46-6.48,15.58l16.13,38.45-.47,3.1L213.75,186l-16.11-38.45c-3-7.11-2.69-14,8.6-18.54s15.47.51,18.49,7.62l16.33,38.46-.4,3.07-2.51-1.91" style="fill:#fff"></path></g><polygon points="211.22 169.65 206.45 171.56 205.71 169.78 210.47 167.87 211.22 169.65" style="fill:#407BFF"></polygon><polygon points="216.07 181.21 211.29 183.12 210.54 181.33 215.32 179.42 216.07 181.21" style="fill:#407BFF"></polygon><polygon points="235.72 159.83 230.93 161.75 230.18 159.96 234.96 158.04 235.72 159.83" style="fill:#407BFF"></polygon><polygon points="240.63 171.39 235.83 173.31 235.07 171.52 239.87 169.6 240.63 171.39" style="fill:#407BFF"></polygon><polygon points="227.04 164.5 216.8 168.6 215.2 164.79 225.42 160.68 227.04 164.5" style="fill:#fff"></polygon></g><g id="freepik--Character--inject-2"><path d="M197,328.7a27.89,27.89,0,0,1-8.34,2.39l3,.52c-.86.45-1.72,1.37-2.58,1.82a9.26,9.26,0,0,0,3.31.43c-.22.42-.69.94-.91,1.36l3.25-.92a7,7,0,0,1,4.77-.78,2.8,2.8,0,0,1-2.72-1.75C196.38,330.67,196.06,329.43,197,328.7Z" style="fill:#fff;opacity:0.1"></path><path d="M217.35,389.48a91.21,91.21,0,0,0,16.79,7.27" style="fill:none;stroke:#407BFF;stroke-linecap:round;stroke-linejoin:round"></path><path d="M210.89,385.53c1,.66,2,1.3,3,1.92" style="fill:none;stroke:#407BFF;stroke-linecap:round;stroke-linejoin:round"></path><path d="M173.5,337.74a96,96,0,0,0,34.66,45.91" style="fill:none;stroke:#407BFF;stroke-linecap:round;stroke-linejoin:round"></path><g id="freepik--Character--inject-68--inject-2"><path d="M158,313.29a1.29,1.29,0,0,1,.66-1,.72.72,0,0,1,.71-.05c1.19.58,1.79,4.89,1.86,5.39a.25.25,0,0,1-.12.23.23.23,0,0,1-.27,0,17.2,17.2,0,0,1-2-2.28A3.7,3.7,0,0,1,158,313.29Zm1.14-.6a.26.26,0,0,0-.27,0,.84.84,0,0,0-.44.65c-.06.78.76,2.13,2.25,3.67C160.34,315.28,159.78,313,159.09,312.69Z" style="fill:#407BFF"></path><path d="M160.75,317.71c-.23-1.26.16-4.35,1.15-4.83.23-.11.59-.14,1,.33l.11.16c1.21,1.78-1.74,4.39-1.89,4.48a.22.22,0,0,1-.22,0,.36.36,0,0,1-.12-.08Zm1.77-4.2c-.26-.32-.45-.21-.45-.21-.59.29-1,2.51-.94,3.9.69-.72,2.27-2.44,1.47-3.58Z" style="fill:#407BFF"></path><polygon points="180.46 313.76 175.97 306.41 160.49 320.71 164.99 328.06 180.46 313.76" style="fill:#ffc3bd"></polygon><path d="M160.34,316.46c-3.12-1-6.53-2.29-11.83-7.82-1.19-1.23-4.42,1.12-2.3,4.55s5.52,8.41,7,10.9c2.49,4,3.25,5.71,5.17,8.94a.9.9,0,0,0,.14.2,1.48,1.48,0,0,0,2.09.19l6.52-5.71a.78.78,0,0,0,.15-1l-5.65-9.2A2.59,2.59,0,0,0,160.34,316.46Z" style="fill:#263238"></path><polygon points="180.46 313.78 172.47 321.15 167.37 314.36 175.97 306.42 180.46 313.78" style="isolation:isolate;opacity:0.2"></polygon></g><path d="M313.33,262.78c-29.89,28.9-66.45-1.87-89.59,16.7C202.51,296.51,175,320.4,175,320.4l-7.5-10.32s24.71-26.57,45.2-45.15c19.72-17.87,84.15-22.53,84.15-22.53S307.33,255.07,313.33,262.78Z" style="fill:#407BFF"></path><path d="M313.09,262.76A44.18,44.18,0,0,1,289,275.09c-9.8,1.63-19.73.32-29.24-.82-13.51-1.63-26.14-2.9-36.21,5.18-21.24,17-48.75,40.92-48.75,40.92l-7.49-10.32s24.71-26.57,45.2-45.15c19.72-17.87,84.14-22.53,84.14-22.53S307.1,255.05,313.09,262.76Z" style="fill:#fff;opacity:0.30000000000000004"></path><path d="M290.83,272.51a4.68,4.68,0,0,1-1.87,2.58c-9.8,1.63-19.73.32-29.24-.82,16.68-3.15,31.68-6.92,31.68-6.92S293.34,263.34,290.83,272.51Z" style="isolation:isolate;opacity:0.2"></path><path d="M253.87,401a1.24,1.24,0,0,1-.21-1.07.67.67,0,0,1,.44-.47c1.11-.4,4.28,2,4.63,2.31a.2.2,0,0,1,.07.23.21.21,0,0,1-.19.14,14.41,14.41,0,0,1-2.78-.21A3.4,3.4,0,0,1,253.87,401Zm4.1.74c-1.31-1-3.15-2.08-3.78-1.89a.24.24,0,0,0-.16.19.76.76,0,0,0,.13.71c.45.57,1.84.92,3.81,1Z" style="fill:#407BFF"></path><path d="M258.48,402.19c-1-.67-2.7-2.95-2.36-3.88.08-.22.29-.47.87-.42h.16c1.93.37,1.66,4,1.66,4.13a.2.2,0,0,1-.11.17h-.22ZM257,398.27c-.37,0-.44.14-.44.14-.24.57.94,2.31,1.87,3.15,0-.9-.1-3-1.34-3.28Z" style="fill:#407BFF"></path><polygon points="268.03 385.84 259.22 384.15 258.99 404.3 267.79 405.99 268.03 385.84" style="fill:#ffc3bd"></polygon><path d="M257.42,401.59c-2.75,1.13-7.25,1.39-14.19.61-1.55-.17-2.42,3.37,1.07,4.55s11.37,4.79,13.89,5.64c4.11,1.39,5.61,2.11,8.85,3.26l.2.05a1.36,1.36,0,0,0,1.59-1.09l-.07-9.13a.72.72,0,0,0-.49-.8l-9.33-3.14A2.27,2.27,0,0,0,257.42,401.59Z" style="fill:#263238"></path><polygon points="268.04 385.84 267.91 397.18 259.09 395.36 259.23 384.15 268.04 385.84" style="isolation:isolate;opacity:0.2"></polygon><path d="M269.53,393.89l-12-3.26s-3.46-37.3.53-66c1-7.58,5.57-17.36,11.39-27.33h0A325.36,325.36,0,0,1,290,266.94c7.48-9.93,13.31-16.82,13.31-16.82s9.63,2.21,18.7,4.84c3.18,42.1-39.69,42.81-45.34,73.11C271.46,355.86,269.53,393.89,269.53,393.89Z" style="fill:#407BFF"></path><path d="M269.53,393.89l-12-3.26s-3.46-37.3.53-66c1-7.58,5.57-17.36,11.39-27.33h0A325.36,325.36,0,0,1,290,266.94c7.48-9.93,13.31-16.82,13.31-16.82s7.92,1.82,16.17,4.12a3.68,3.68,0,0,1,2.68,3.42c1.18,39.45-40,40.77-45.49,70.41C271.46,355.86,269.53,393.89,269.53,393.89Z" style="fill:#fff;opacity:0.30000000000000004"></path><polygon points="256.22 384.94 270.91 388.74 270.5 394.59 256.04 391.04 256.22 384.94" style="fill:#407BFF"></polygon><path d="M354.93,204.06l-13.73,3.51-.44-10a4.85,4.85,0,0,0,4.07-.76l.87-.81c1.66-1.89,2.63-5.05,4.3-7.89l3.26-.21,1.19-.07,6.34-.39C357.81,191.63,353.12,199.56,354.93,204.06Z" style="fill:#ffc2bc"></path><path d="M356.65,190.65a35.12,35.12,0,0,1-2.38,4.7c-1.66,2-6.57,2.27-9.5,1.56l.06-.07.87-.81c1.66-1.89,2.63-5.05,4.3-7.89l3.26-.21Z" style="isolation:isolate;opacity:0.2"></path><path d="M348.8,194.21c-1.77-1.74,1.15-2.24,4.26-11,.3-.83,2.92-2.81,2.83-3.68a2.58,2.58,0,0,0-1.38-2.11c-.81-.35-2.36-.12-2.67.71,1.22-16.29,10-15,15.92-15.51,3.71-.31,9.38.74,14.57-4.21.93,3.3-1.72,7.68-8.31,8.58,10.29-.09,16.74-13.29,17.34-16.95,2,4.71,2.77,13.32-4,21.06,1.79-1.41,4.35-1.8,6.47-9.76,1,15.59-.71,21.27-7.45,27.56-4,3.72-12.28,4.5-11.86,4.79,0,0,11.08-3.19,14.52-1.09-4.11.93-14.17,4.28-18.54,5.28C359.25,200.44,350.09,195.48,348.8,194.21Z" style="fill:#263238"></path><path d="M348.8,194.21c-1.77-1.74,1.15-2.24,4.26-11,.3-.83,2.92-2.81,2.83-3.68a2.58,2.58,0,0,0-1.38-2.11c-.81-.35-2.36-.12-2.67.71,1.22-16.29,10-15,15.92-15.51,3.71-.31,9.38.74,14.57-4.21.93,3.3-1.72,7.68-8.31,8.58,10.29-.09,16.74-13.29,17.34-16.95,2,4.71,2.77,13.32-4,21.06,1.79-1.41,4.35-1.8,6.47-9.76,1,15.59-.71,21.27-7.45,27.56-4,3.72-12.28,4.5-11.86,4.79,0,0,11.08-3.19,14.52-1.09-4.11.93-14.17,4.28-18.54,5.28C359.25,200.44,350.09,195.48,348.8,194.21Z" style="fill:#263238"></path><path d="M370.56,185c-4.46,7.1-6.19,10.19-11.95,11.93-8.67,2.62-16.4-4.4-14.16-12.67,2-7.46,9-17.8,17.75-16.8A11.44,11.44,0,0,1,370.56,185Z" style="fill:#ffc2bc"></path><path d="M354.35,169.21c2.23-.81,5-2.07,5.41,1.6,1.78-1,4.71.56,6.25,1.91a7.27,7.27,0,0,1,2.26,5.51c0,2-4.19,8.48-4.16,12,.45.05,3-.37,2.77,1.76,2.61-2.8,5.27-5.79,6.85-9.26s1.94-7.75-.05-11a12.25,12.25,0,0,0-4.53-4.13,14,14,0,0,0-7.56-2A9.88,9.88,0,0,0,354.35,169.21Z" style="fill:#263238"></path><path d="M363.69,170.66c2.56.86.42-5.42-3-2.46a5.19,5.19,0,0,0-.92,2.6Z" style="opacity:0.2"></path><path d="M379,182c-2.38,3-7.2,3.49-10.47,1.44s-5-6.09-4.83-9.95a15.89,15.89,0,0,0,0-2.58,3,3,0,0,0-1.22-2.19,1.7,1.7,0,0,0-2.29.38c.3-1.27,1.64-1.71,2.94-1.76h.09a8.11,8.11,0,0,1,8.05,7.12,9.54,9.54,0,0,0,1.82,4.26C374.61,180.63,376.57,182.15,379,182Z" style="fill:#263238"></path><path d="M379,182c-2.38,3-7.2,3.49-10.47,1.44s-5-6.09-4.83-9.95a15.89,15.89,0,0,0,0-2.58,3,3,0,0,0-1.22-2.19,1.7,1.7,0,0,0-2.29.38c.3-1.27,1.64-1.71,2.94-1.76h.09a8.11,8.11,0,0,1,8.05,7.12,9.54,9.54,0,0,0,1.82,4.26C374.61,180.63,376.57,182.15,379,182Z" style="fill:#fff;opacity:0.1"></path><path d="M369.36,193.49a6.1,6.1,0,0,1-4.62.76c-2.08-.51-2.08-2.62-.63-4s4-2.53,5.65-1.31a2.76,2.76,0,0,1,.47,3.86A2.65,2.65,0,0,1,369.36,193.49Z" style="fill:#ffc2bc"></path><path d="M358.31,181c-.33.6-.91.9-1.29.7s-.45-.87-.12-1.47.9-.89,1.29-.69S358.63,180.42,358.31,181Z" style="fill:#263238"></path><path d="M351.11,187.64c-.32.59-.9.89-1.29.69s-.45-.87-.12-1.46.9-.9,1.29-.7S351.44,187,351.11,187.64Z" style="fill:#263238"></path><path d="M351.56,177.33c-.33.59-.9.89-1.3.69s-.45-.87-.11-1.47.9-.89,1.29-.69S351.92,176.73,351.56,177.33Z" style="fill:#263238"></path><path d="M351.6,176l-1.22-1.16S350.52,176.27,351.6,176Z" style="fill:#263238"></path><path d="M352.78,179.33a18.22,18.22,0,0,1-4.21,2.65,2.94,2.94,0,0,0,1.91,1.55Z" style="fill:#ec837e"></path><path d="M361.77,177.34a.27.27,0,0,1-.17-.21,2.78,2.78,0,0,0-1.44-2.09.31.31,0,0,1-.15-.39.27.27,0,0,1,.33-.2h0a3.32,3.32,0,0,1,1.76,2.51.32.32,0,0,1-.2.37A.17.17,0,0,1,361.77,177.34Z" style="fill:#263238"></path><path d="M351.89,171.32a.34.34,0,0,0-.3.13.32.32,0,0,0,.07.46h0a3.89,3.89,0,0,0,3.52.64.32.32,0,0,0,.21-.4v0a.34.34,0,0,0-.43-.19h0a3.24,3.24,0,0,1-2.9-.55A.29.29,0,0,0,351.89,171.32Z" style="fill:#263238"></path><path d="M358.34,179.67l-1.21-1.16S357.26,180,358.34,179.67Z" style="fill:#263238"></path><path d="M336,194.62l-1.28-1.4-1.34-1.56c-.9-1-1.75-2.13-2.59-3.21a64.69,64.69,0,0,1-4.52-6.84,48.59,48.59,0,0,1-3.31-7.23,31.51,31.51,0,0,1-1.66-7.42l-.63,2.7a72.12,72.12,0,0,1,4.23-6.44c1.6-2.23,3.22-4.46,4.88-6.67l5-6.65c1.64-2.22,3.33-4.42,4.95-6.72h0a2.7,2.7,0,0,0-.65-3.81,2.79,2.79,0,0,0-3.45.16c-2.15,1.87-4.19,3.8-6.26,5.73s-4,4-6,6-3.9,4.11-5.79,6.27a64.8,64.8,0,0,0-5.57,7.11,4.16,4.16,0,0,0-.69,2.34l0,.33a37.83,37.83,0,0,0,1.58,10.13,48.23,48.23,0,0,0,3.76,9.22,63.49,63.49,0,0,0,5.18,8.29c1,1.31,2,2.57,3.07,3.82.53.62,1,1.23,1.62,1.84s1.06,1.13,1.83,1.86a5.62,5.62,0,0,0,7.87.08,5.42,5.42,0,0,0,0-7.75Z" style="fill:#407BFF"></path><path d="M336,194.62l-1.28-1.4-1.34-1.56c-.9-1-1.75-2.13-2.59-3.21a64.69,64.69,0,0,1-4.52-6.84,48.59,48.59,0,0,1-3.31-7.23,31.51,31.51,0,0,1-1.66-7.42l-.63,2.7a72.12,72.12,0,0,1,4.23-6.44c1.6-2.23,3.22-4.46,4.88-6.67l5-6.65c1.64-2.22,3.33-4.42,4.95-6.72h0a2.7,2.7,0,0,0-.65-3.81,2.79,2.79,0,0,0-3.45.16c-2.15,1.87-4.19,3.8-6.26,5.73s-4,4-6,6-3.9,4.11-5.79,6.27a64.8,64.8,0,0,0-5.57,7.11,4.16,4.16,0,0,0-.69,2.34l0,.33a37.83,37.83,0,0,0,1.58,10.13,48.23,48.23,0,0,0,3.76,9.22,63.49,63.49,0,0,0,5.18,8.29c1,1.31,2,2.57,3.07,3.82.53.62,1,1.23,1.62,1.84s1.06,1.13,1.83,1.86a5.62,5.62,0,0,0,7.87.08,5.42,5.42,0,0,0,0-7.75Z" style="isolation:isolate;opacity:0.2"></path><path d="M336.44,147l7.43-1.8-4-9.5s-5.77,1.64-7.1,7.12Z" style="fill:#ffc3bd"></path><path d="M347.5,137.64l-1.63-2.08a3.26,3.26,0,0,0-4.07-.87l-1.9,1,4,9.5,3.45-3.37A3.12,3.12,0,0,0,347.5,137.64Z" style="fill:#ffc3bd"></path><path d="M309.62,212.35c1.59-4.61,5.05-7.83,8.51-10.45,1.49-1.13,2.58-2.47,3.77-3.33,12-8.64,22.22-.76,32,6.58,10,7.53,15.85,8.54-3,23.42-16.43,13-28.25,33.18-28.25,33.18l-31.78-18.93S304.21,227.9,309.62,212.35Z" style="fill:#407BFF"></path><path d="M354.67,203c1.33,5-6.26,4.69-11.17,4a14.75,14.75,0,0,1-11.81-8.34c-2.34-4.81-.81-15.36,1.9-20-.11,3.25-2.59,11.2,2.63,16.11,2.36,2.22,3,1.12,6.15,2" style="fill:none;stroke:#263238;stroke-miterlimit:10;stroke-width:0.75px"></path><path d="M355.43,205.54l.69-.92c.32-1.07-.7-2.31-1.63-2.92-3.6-2.36-10.94-7.3-13.07-7.09a9,9,0,0,0-1.28.23,2,2,0,0,0-.49,3.64l13.2,7.59A2,2,0,0,0,355.43,205.54Z" style="fill:#407BFF"></path><g style="opacity:0.2"><path d="M355.43,205.54l.69-.92c.32-1.07-.7-2.31-1.63-2.92-3.6-2.36-10.94-7.3-13.07-7.09a9,9,0,0,0-1.28.23,2,2,0,0,0-.49,3.64l13.2,7.59A2,2,0,0,0,355.43,205.54Z" style="fill:#fff"></path></g><path d="M352.9,218c1.89,2.24,18,17,22.48,20.33l.29.21.13,0a13,13,0,0,0,5.21,1.7c4.18.61,25.53-2.9,27.75-4A2.78,2.78,0,0,0,407,231l-.09,0c-2.18.4-21.89.7-24.28-.31a3.19,3.19,0,0,1-1.34-.57l.41.29c-3.95-3.5-18.62-17.92-20.36-19.75l-.07-.08a5.61,5.61,0,1,0-8.38,7.46h0Z" style="fill:#407BFF"></path><path d="M405.42,230.45l4.75-5.1,4.29,8.91a7.31,7.31,0,0,1-6.26,2.82,2.8,2.8,0,0,1-2.44-1.67l-.85-1.89A2.82,2.82,0,0,1,405.42,230.45Z" style="fill:#ffc3bd"></path><path d="M417.56,225.53l1.19,2.68a3.21,3.21,0,0,1-1.14,4l-3.15,2.09-4.29-8.91,3.15-1.42A3.21,3.21,0,0,1,417.56,225.53Z" style="fill:#ffc3bd"></path><path d="M336.57,175.05c-.55,2-1.83,3.37-2.84,3.09s-1.39-2.13-.83-4.12,1.84-3.37,2.85-3.08S337.13,173.07,336.57,175.05Z" style="fill:#263238"></path><path d="M336.57,175.05c-.55,2-1.83,3.37-2.84,3.09s-1.39-2.13-.83-4.12,1.84-3.37,2.85-3.08S337.13,173.07,336.57,175.05Z" style="fill:#fff;opacity:0.8"></path><polygon points="334.15 173.33 333.72 174.87 334.38 176.03 335.36 172.54 334.15 173.33" style="fill:#407BFF"></polygon><polygon points="335.97 173.84 335.54 175.38 334.38 176.03 335.36 172.54 335.97 173.84" style="fill:#407BFF"></polygon><path d="M323.06,261.81l-29.83-21.36c-.3-.2-.66-.25-.81-.09l-2,2.28c-.13.14,0,.36.23.58l30.9,22.1c.34.23.77.23.85,0l1-3A.53.53,0,0,0,323.06,261.81Z" style="fill:#263238"></path><polygon points="170.36 304.81 179.37 319.57 175.68 321.69 166.04 308.83 170.36 304.81" style="fill:#407BFF"></polygon></g></svg>
